<?xml version="1.0" encoding="UTF-8"?><svg id="Layer_2" xmlns="http://www.w3.org/2000/svg" viewBox="0 0 1200 613.45"><g id="artwork"><path d="M1155.2,320.54c17.29-77.46,44.8-181.02,44.8-181.02,0,0-.29-2.45-1.4-2.81-151.16-48.77-313.67-33.56-454.77-13.71,3.12-19.76,6.22-39.4,9.29-58.83.24-1.5-.95-2.86-2.35-2.61-210.95,37.15-429.68,85.67-681.24,32.99l-1.71-11.38c-.27-1.71.33-3.44,1.58-4.54,12.15-10.71,18.41-28.3,14.34-46.14C78.77,10.76,59.29-1.95,38.48.24,13.68,2.86-3.46,25.3.59,51.14c2.61,16.65,13.37,29.62,27.17,35.07,1.52.6,2.64,2.02,2.91,3.74l76.79,518.26c.3,1.93,3.82,2.91,3.82,2.91,16.42,3.92,32.74,1.74,32.74,1.74,1.81-.33,3.02-2.16,2.72-4.1l-7.68-51.11c223.94,17.93,382.13-19.35,546.93-57.16-2.56,16.99-5.19,35.99-7.75,53-.23,1.55,1.05,2.88,2.49,2.57,177.58-37.68,347.08-54.35,511.99-27.84,1.65.26,2.6-2.81,2.6-2.81,0,0-27.9-119.02-40.13-195.65-.29-3.1-.67-6.16,0-9.21Z" fill="#221f1f"></path><path d="M110.84,175.03c9.81,76.91,35.49,243.25,51.82,318.69.65,2.81,2.14,4.4,4.69,5.01,16.33,2.47,39.34,3.3,53.64,2.84,2.45.03,3.8-1.16,4.37-3.85,13.7-69.06,34.78-224.55,43.87-305.62.26-3.01-.51-4.1-3.16-4.46-11.97-.52-30.35-1.21-40.78-1.49-2.32.19-3.29,1.27-3.56,3.98-4.03,42.81-14.36,149.56-23.42,216.03-.17,2.01-1.68,3.38-3.75,3.39-2.14.03-4.56-1.61-4.85-4.72-9.25-58.38-22.14-155.35-29.34-220.74-.35-2.83-1.54-4.34-4.01-5.06-9.78-1.71-24.2-4.3-42.85-7.69-1.12-.09-1.91.08-2.28.49-.3.33-.61,1.16-.39,3.2Z" fill="#fff3d9"></path><path d="M402.36,192.51c-7.32-7.44-18.14-10.74-36.22-11.06-5.68-.1-12.16.09-19.8.57-30.88,1.81-45.74,6.51-54.85,17.31h0c-15.38,17.93-20.64,57.53-19.41,146.1,1.42,101.23,9.48,130.12,22.03,143.92,10.09,10.44,26.51,13.49,56.65,10.51,30.33-3.13,46.57-9.37,56.04-21.53,14.32-18.32,18.94-56.22,17.64-144.86-1.32-90.66-6.9-126.24-22.08-140.97ZM369.72,444.51c-4.49,5.47-10.42,8.19-19.83,9.08-1.9.18-3.68.26-5.3.23-6.49-.11-11.07-1.85-14.84-5.64-7.68-8.55-10.61-34.87-11.59-104.3-1.02-72.02,1.15-98.06,8.92-107.15,4.42-5.18,10.24-7.65,19.46-8.26,10.88-.73,17.13,1.09,20.92,6.08,7.13,6.68,9.76,32.12,10.8,104.65,1.01,69.69-1.15,96.27-8.55,105.32Z" fill="#fff3d9"></path><path d="M571.6,195.14l-.5-33.38c-.03-1.83-.32-2.93-.91-3.47-.6-.54-1.68-.65-3.41-.36-17.04,2.4-36.85,5.45-57.82,8.69-26.66,4.11-54.17,8.35-78.71,11.67-3.46.41-4.5,1.68-4.44,5.45l.49,33.55c.03,1.9.33,3.06.95,3.64.61.57,1.69.74,3.41.53,13.13-1.89,27.03-4.04,41.32-6.39.51-.08.98-.11,1.4-.1,1.08.02,1.92.31,2.55.89.87.8,1.28,2.07,1.31,4.01.31,70.66,1.45,196.19,2.3,253.43.03,1.86.32,2.97.92,3.51.6.53,1.68.64,3.4.33,12.59-1.86,24.58-4.09,37.74-7,3.53-.68,4.59-2.03,4.53-5.79-1.5-83.83-3-167.73-4.5-251.72-.05-3.64,1.43-5.51,4.82-6.06,12.54-1.71,25.85-3.59,40.71-5.76,3.47-.61,4.51-1.93,4.45-5.66Z" fill="#fff3d9"></path><path d="M617.44,450.91c25.49-5.23,51.84-10.63,77.85-15.74,3.51-.69,4.56-2.02,4.5-5.7l-.52-33.68c-.03-1.78-.31-2.85-.88-3.36-.59-.52-1.68-.61-3.42-.28-20.3,4.03-40.58,8.2-57.75,11.75-1.84.37-3.11.18-4-.6-.87-.76-1.28-2-1.31-3.9-.67-19.97-1.29-60.05-1.22-79.41-.05-3.57,1.43-5.45,4.79-6.09,17.1-3.15,35.5-6.52,54.15-9.82,3.49-.64,4.54-1.96,4.48-5.64l-.52-33.72c-.03-1.79-.31-2.87-.89-3.38-.6-.53-1.69-.63-3.42-.32-18.55,3.34-36.97,6.76-54.12,9.96-1.83.34-3.09.14-3.98-.65-.86-.77-1.28-2.01-1.31-3.92-.65-18.7-1.17-52.54-1.09-71-.05-3.58,1.43-5.44,4.81-6.04,21.49-3.7,39.54-6.78,57.77-9.79,3.48-.6,4.53-1.9,4.47-5.57l-.52-33.73c-.03-1.8-.31-2.88-.9-3.41-.37-.33-.93-.5-1.72-.52-.49,0-1.04.04-1.71.15-22.47,3.76-45.32,7.75-67.42,11.6l-1.05.18c-11.68,2.04-23.35,4.07-35.03,6.08-3.49.6-4.54,1.92-4.48,5.65-.16,60.88,2.37,227.63,4.44,292.49.03,1.83.31,2.91.89,3.41.59.51,1.67.59,3.4.24,8.27-1.69,16.55-3.39,24.82-5.08l.89-.18Z" fill="#fff3d9"></path><path d="M904.43,458.45h0c.44-.59.56-1.53.38-2.98-10.8-64.87-32.22-187.67-54.27-281.15-.6-3.07-1.67-4.17-4.1-4.21-.42,0-.87.02-1.39.07-13.44,1.06-37.15,4.03-50.74,6.34-3.59.84-5,2.38-5.57,6.09-14.33,76.87-34.95,203.6-46.65,297.09-.16,1.78.14,2.48.42,2.76.38.38,1.22.45,2.43.22,13.53-2.55,26.13-4.83,38.52-6.96,2.41-.42,3.5-1.69,3.77-4.39l5.69-54.23c.36-3.54,2.46-5.79,5.9-6.34,14.73-2.34,29.15-4.45,42.86-6.29,3.58-.48,5.83,1.23,6.32,4.8l7.74,51.97c.34,2.45,1.36,3.29,3.63,3,13.12-1.32,28.99-3.09,42.45-4.74,1.33-.13,2.18-.47,2.61-1.04ZM838.36,360.47c-1,1.46-2.74,2.31-5.48,2.68-8.48,1.15-17.27,2.41-26.12,3.74-.81.12-1.51.17-2.15.16-1.57-.03-2.72-.45-3.51-1.3-1.11-1.19-1.46-3.13-1.07-6.1,4.65-35.71,9.3-71.36,13.95-106.95.21-2.38,2.24-3.66,4.14-3.69,1.85-.02,3.84,1.11,4.12,3.64,5.62,33.88,11.25,67.8,16.89,101.68.46,2.77.22,4.72-.76,6.15Z" fill="#fff3d9"></path><path d="M995.37,166.51c-3.98,39.8-14.21,139.07-23.16,201.07-.18,2.01-1.86,3.43-4.07,3.46-1.97.03-4.24-1.24-4.54-4.08-9.38-53.28-22.43-141.03-29.71-199.76-.34-2.48-1.42-3.52-3.84-3.73-12.63.17-30.7,1.3-42.94,2.7-2.59.51-3.32,1.57-2.97,4.36,9.97,67.81,35.98,214.94,52.45,282.18.62,2.36,2.07,3.55,4.57,3.72,14.75-.26,35.5-1.24,53.86-2.17,2.47-.01,3.82-1.14,4.39-3.64,13.61-64.19,34.48-207.29,43.44-281.63.25-2.74-.52-3.79-3.2-4.29-11.53-1.25-29.79-2.13-40.69-1.97-2.32.25-3.34,1.31-3.6,3.77Z" fill="#fff3d9"></path><path d="M1108.26,457.4h0c-.34-62.99-2.12-169.36-3.74-223.17-.05-2.72-1.09-3.73-4.67-4.53-10.83-1.92-24.62-3.61-35.98-4.42h-.08c-1.89-.03-3.03.22-3.58.8-.41.43-.59,1.17-.57,2.32.16,53.28,1.93,160.43,3.71,224.82.05,2.65,1.11,3.55,4.53,3.84,5.83.63,12.18,1.06,18.33,1.48,6.04.41,12.28.83,17.85,1.44,1.9.26,3.13.13,3.65-.37.38-.37.55-1.07.54-2.21Z" fill="#fff3d9"></path><path d="M1116.59,190.91c-1.29,1.12-2.74,2.12-4.17,3.11-1.39.96-3.04,1.87-4.13,3.2-.4.49-.35,1.1.19,1.59,1.07.97,2.31,1.68,3.56,2.27,1.24.59,2.65.97,3.84,1.72,1.22.78-.55,1.43-1.05,1.62-1.32.49-2.74.82-3.97,1.5-.88.48-1.64,1.16-2.04,2.13-.3,1.26,3.15,3.12.18,2.95-1.48-.08-2.96-.29-4.45-.46-1.45-.17-2.87-.39-4.19.09-.95.35-.98,1.44-.71,2.44.14.51.35,1.01.59,1.5.14.3.74,1.16.34,1.34-.17.08-.47.02-.67-.09-1.75-.94-11.43-8.04-12.36-6.78-.39.52-.59,6.19-1.32,9.39-1.03,4.5-.46,4.79-3.28,4.35-.82-.13-3.14-.83-2.96-1.77.21-1.15.89-2.01,1.34-3.04.52-1.18.86-2.45,1.1-3.76.34-1.87.47-3.23.58-5.16,0-.13.1-1.43-1.41-.74-.56.26-1.16.42-1.75.64-1.14.42-2.29.83-3.44,1.23-1.08.38-2.2.69-3.32.97-1.52.31-2.85.83-4.23.84-.15-.02-.26-.07-.32-.15-.25-.33.24-.96.37-1.21.26-.52.53-1.08.66-1.67.14-.62.08-1.35-.32-1.91-.24-.34-.59-.58-.94-.78-1.33-.74-2.84-.92-4.26-1.1-.76-.09-1.53-.18-2.29-.28-.64-.08-1.48-.06-2.1-.32-.21-.09-.56-.21-.62-.45-.16-.57.82-1.26.96-1.79.13-.49,0-1.06-.25-1.53-.26-.48-.64-.88-1.05-1.24-1.88-1.66-4.25-2.44-6.16-4.03-.15-.13-.32-.4-.3-.56.02-.16.24-.35.41-.39,2.35-.51,5.23-.54,7.13-2.08.17-.14.34-.3.42-.52.15-.43-.1-.95-.38-1.36-2.14-3.22-5.83-4.8-8.12-7.85-.42-.57-.73-1.33.17-1.41.51-.04,1.02-.08,1.53-.12.48-.04,1-.09,1.3-.45.2-.24.27-.57.28-.9.03-.86-.3-1.73-.63-2.56-.94-2.37-1.88-4.75-2.82-7.12-.2-.5-.93-1.93-.47-2.32.38-.32,1.17.2,1.56.38.79.37,1.57.81,2.35,1.2,1.02.52,2.04,1.02,3.08,1.5.52.24,1.03.48,1.55.72.48.22.94.25,1.44.27.68.05.99-.44,1.21-.98.2-.49.08-1.24.53-1.59.58-.46,1.44.85,1.81,1.26,1.53,1.66,3,3.38,4.58,4.99,1.32,1.35,2.72,2.57,4.2,3.72.09.07.19.15.3.16.02,0,.04,0,.06,0,.15-.01.26-.15.33-.29.18-.41.12-.91.03-1.38-.18-.95-.46-1.9-.75-2.84-.65-2.1-1.33-4.19-2.03-6.28-.66-1.95-1.43-3.97-1.78-5.97-.03-.17-.07-.34-.02-.5.05-.15.19-.28.35-.23.07.02.13.07.19.11,1.02.78,2.03,1.58,3.08,2.33.47.34,1.06.68,1.52.45.32-.16.45-.54.53-.91.27-1.18.3-2.47.28-3.71,0-.66-.09-2,.76-2.05.26-.01.41.34.56.52.22.25.46.48.73.68.22.16.47.31.72.31.18,0,.34-.1.48-.2.58-.43.91-1.14,1.21-1.83.57-1.31,1.11-2.65,1.61-4,.47-1.26.8-2.65,1.38-3.84.11-.26.3-.41.6-.36.31.05.45.26.56.56.59,1.66,1.15,3.33,1.8,4.97.41,1.03.84,2.06,1.29,3.08.38.87.7,2.03,1.39,2.73.23.23.52.4.82.43.33.03.62-.13.85-.33.33-.27.71-.79,1.16-.87.35-.06.58.68.59.93.04.92.09,1.85.19,2.78.09.88.22,1.75.38,2.63.11.61.62,1.03,1.18.97.31-.03.63-.14.9-.29.93-.5,1.78-1.13,2.76-1.53.08-.03.17-.06.26-.02.06.03.1.09.14.15.13.24.14.51.12.77-.15,1.71-.88,3.29-1.37,4.86-.54,1.72-1.09,3.45-1.63,5.17-.49,1.56-.99,3.17-.87,4.9.01.19.04.4.18.54.13.14.33.18.5.17.44-.02.81-.24,1.15-.47,1.51-.99,2.9-2.1,4.23-3.32,1.29-1.19,2.58-2.4,4.06-3.34.59-.38,1.08.75,1.43,1.74.28.67.79,1.04,1.43,1.19,1.33.32,2.61-.09,3.81-.37.98-.23,1.95-.47,2.92-.72.89-.23,1.73-.6,2.69-.6.06,0,.13,0,.19.05.07.05.09.15.11.23.12.75-.26,1.46-.5,2.08-.28.73-.59,1.44-.9,2.14-.62,1.38-1.27,2.74-1.81,4.18-.3.79-.75,1.79-.68,2.72.06.8.76,1.36,1.45,1.6.61.21,1.24.3,1.86.45.28.07.61.01.77.38.18.4-.07.6-.29.79Z" fill="#fff3d9"></path></g></svg>